<svg width="512" height="512" viewBox="0 0 512 512" fill="none" xmlns="http://www.w3.org/2000/svg">
<path d="M256 0C114.511 0 0 114.497 0 256C0 397.49 114.495 512 256 512C397.49 512 512 397.503 512 256C512 114.51 397.503 0 256 0ZM348.238 284.418L227.944 353.925C217.796 359.789 205.283 359.799 195.118 353.934C184.96 348.072 178.703 337.235 178.703 325.508V186.493C178.703 174.765 184.961 163.929 195.118 158.067C200.194 155.137 205.859 153.672 211.524 153.672C217.194 153.672 222.865 155.14 227.944 158.074L348.239 227.581C358.388 233.445 364.639 244.277 364.639 255.999C364.639 267.722 358.387 278.553 348.238 284.418Z" fill="black"/>
<path d="M350.511 226.36C371.91 238.628 371.968 269.473 350.616 281.822L227.298 353.145C205.988 365.469 179.323 350.122 179.277 325.505L179.006 183.329C178.959 158.712 205.565 143.263 226.922 155.507L350.511 226.36Z" fill="white"/>
</svg>
